# xmcd
#
# Track frame offsets: 
#        150
#        14334
#        37061
#        50618
#        73102
#        85221
#        98882
#        111480
#        126745
#        150042
#        171083
#        181793
#        192320
#        206753
#        220910
#        252101
#        267653
#        282929
#        302258
#        328666
#
# Disc length: 4665 seconds
#
# Revision: 1
# Processed by: cddbd v1.5.2PL0 Copyright (c) Steve Scherf et al.
# Submitted via: ExactAudioCopy v1.0b3
#
DISCID=28123714
DTITLE=Various Artist - Ich mag keinen Jazz, aber das gefällt mir! Vo
DTITLE=l. 2
DYEAR=2012
DGENRE=Jazz
TTITLE0=Peggy Lee - Benny Goodman - How deep is the ocean?
TTITLE1=Nina Simone - Mr. Bojangles
TTITLE2=Ray Conniff - As time goes by
TTITLE3=Dave Brubeck Quartet - Jeepers Creepers
TTITLE4=Coleman Hawkins - Manny Albam - La vie en rose
TTITLE5=Caroline Henderson - Calamity lane
TTITLE6=Django Reinhardt - Beyond the sea
TTITLE7=Herbie Hancock - On Green Dolphin Street
TTITLE8=Silje Nergaard - The moon's a harsh mistress
TTITLE9=Sonny Rollins - Coleman Hawkins - Just friends
TTITLE10=Ella Fitzgerald - I've got a crush on you
TTITLE11=George Benson - Stormy weather
TTITLE12=Frank Sinatra - Time after time
TTITLE13=Sarah Vaughan - East of the sun (and west of the moon)
TTITLE14=Bill Evans - Bésame mucho
TTITLE15=Billie Holiday - I'm a fool to want you
TTITLE16=Gerry Mulligan - How high the moon
TTITLE17=Etta James - Night and day
TTITLE18=Lyambiko - 's wonderful
TTITLE19=Chet Baker - She was too good to me
EXTD=YEAR: 2012
EXTT0=
EXTT1=
EXTT2=
EXTT3=
EXTT4=
EXTT5=
EXTT6=
EXTT7=
EXTT8=
EXTT9=
EXTT10=
EXTT11=
EXTT12=
EXTT13=
EXTT14=
EXTT15=
EXTT16=
EXTT17=
EXTT18=
EXTT19=
PLAYORDER=
